# xmcd
#
# Track frame offsets:
#	150
#	20051
#	38635
#	59022
#	74971
#	93050
#	110273
#	132492
#	150156
#	172324
#	193475
#	212306
#	230883
#	251419
#	268834
#	284903
#	305409
#	323993
#
# Disc length: 4584 seconds
#
# Revision: 7
# Processed by: cddbd v1.4PL0 Copyright (c) Steve Scherf et al.
# Submitted via: MusicWizard 6.0.1
#
DISCID=1c11e612
DTITLE=Various Artist - Kuschel Rock 13 CD1
DYEAR=1999
DGENRE=Rock
TTITLE0=Aerosmith - I Don't Want To Miss A Thing
TTITLE1=Celine Dion - Immortality
TTITLE2=Boyzone - No Matter What
TTITLE3=In-Mood Feat. Juliette - The Last Unicorn
TTITLE4=Andru Donalds - All Out Of Love
TTITLE5=Jennifer Lopez - If You Had My Love
TTITLE6=Lighthouse Family - High
TTITLE7=Mariah Carey - I Still Believe
TTITLE8=Ricky Martin - She's All I Ever Had
TTITLE9=Roxette - Wish I Could Fly
TTITLE10=R.E.M. - Nightswimming
TTITLE11=Britney Spears - Sometimes
TTITLE12=Phil Collins - True Colours
TTITLE13=Michael Bolton - When A Man Loves A Woman
TTITLE14=Shania Twain - You're Still The One
TTITLE15=Eric Clapton - Tears In Heaven
TTITLE16=Loona - Hijo De La Luna
TTITLE17=Xavier Naidoo - Sie Sieht Mich Nicht
EXTD=YEAR: 1999
EXTT0=
EXTT1=
EXTT2=
EXTT3=
EXTT4=
EXTT5=
EXTT6=
EXTT7=
EXTT8=
EXTT9=
EXTT10=
EXTT11=
EXTT12=
EXTT13=
EXTT14=
EXTT15=
EXTT16=
EXTT17=
PLAYORDER=
